<svg xmlns="http://www.w3.org/2000/svg" xmlns:xlink="http://www.w3.org/1999/xlink" width="375" zoomAndPan="magnify" viewBox="0 0 281.25 48.75" height="65" preserveAspectRatio="xMidYMid meet" version="1.0"><defs><clipPath id="6b097e6c4f"><path d="M 230.335938 0 L 280 0 L 280 48.050781 L 230.335938 48.050781 Z M 230.335938 0 " clip-rule="nonzero"/></clipPath><clipPath id="a8ed3a4dcd"><path d="M 255.15625 0 C 241.449219 0 230.335938 10.757812 230.335938 24.023438 C 230.335938 37.292969 241.449219 48.050781 255.15625 48.050781 C 268.863281 48.050781 279.972656 37.292969 279.972656 24.023438 C 279.972656 10.757812 268.863281 0 255.15625 0 Z M 255.15625 0 " clip-rule="nonzero"/></clipPath><clipPath id="b3f4927626"><path d="M 0.34375 0 L 256.652344 0 L 256.652344 48.050781 L 0.34375 48.050781 Z M 0.34375 0 " clip-rule="nonzero"/></clipPath><clipPath id="f4558f9c55"><path d="M 55 9.8125 L 84 9.8125 L 84 37.535156 L 55 37.535156 Z M 55 9.8125 " clip-rule="nonzero"/></clipPath><clipPath id="060bad4012"><path d="M 45.183594 9.8125 L 67.484375 9.8125 L 67.484375 17.179688 L 45.183594 17.179688 Z M 45.183594 9.8125 " clip-rule="nonzero"/></clipPath><clipPath id="608179bed7"><path d="M 48.867188 9.8125 L 63.78125 9.8125 C 65.816406 9.8125 67.464844 11.460938 67.464844 13.496094 C 67.464844 15.53125 65.816406 17.179688 63.78125 17.179688 L 48.867188 17.179688 C 46.832031 17.179688 45.183594 15.53125 45.183594 13.496094 C 45.183594 11.460938 46.832031 9.8125 48.867188 9.8125 Z M 48.867188 9.8125 " clip-rule="nonzero"/></clipPath><clipPath id="411d478155"><path d="M 31.195312 9.8125 L 42.042969 9.8125 L 42.042969 17.179688 L 31.195312 17.179688 Z M 31.195312 9.8125 " clip-rule="nonzero"/></clipPath><clipPath id="2a22d36652"><path d="M 34.878906 9.8125 L 38.332031 9.8125 C 40.367188 9.8125 42.015625 11.460938 42.015625 13.496094 C 42.015625 15.53125 40.367188 17.179688 38.332031 17.179688 L 34.878906 17.179688 C 32.84375 17.179688 31.195312 15.53125 31.195312 13.496094 C 31.195312 11.460938 32.84375 9.8125 34.878906 9.8125 Z M 34.878906 9.8125 " clip-rule="nonzero"/></clipPath><clipPath id="123fafb1cd"><path d="M 22.027344 30.324219 L 37.277344 30.324219 L 37.277344 37.691406 L 22.027344 37.691406 Z M 22.027344 30.324219 " clip-rule="nonzero"/></clipPath><clipPath id="b9b6a80570"><path d="M 25.710938 30.324219 L 33.574219 30.324219 C 35.609375 30.324219 37.257812 31.972656 37.257812 34.007812 C 37.257812 36.039062 35.609375 37.691406 33.574219 37.691406 L 25.710938 37.691406 C 23.675781 37.691406 22.027344 36.039062 22.027344 34.007812 C 22.027344 31.972656 23.675781 30.324219 25.710938 30.324219 Z M 25.710938 30.324219 " clip-rule="nonzero"/></clipPath><clipPath id="be5ce6c2d0"><path d="M 40.167969 30.324219 L 62.46875 30.324219 L 62.46875 37.691406 L 40.167969 37.691406 Z M 40.167969 30.324219 " clip-rule="nonzero"/></clipPath><clipPath id="d469255ff7"><path d="M 43.851562 30.324219 L 58.765625 30.324219 C 60.800781 30.324219 62.449219 31.972656 62.449219 34.007812 C 62.449219 36.039062 60.800781 37.691406 58.765625 37.691406 L 43.851562 37.691406 C 41.816406 37.691406 40.167969 36.039062 40.167969 34.007812 C 40.167969 31.972656 41.816406 30.324219 43.851562 30.324219 Z M 43.851562 30.324219 " clip-rule="nonzero"/></clipPath><clipPath id="adf847fbf8"><path d="M 28.730469 20.339844 L 64.320312 20.339844 L 64.320312 27.707031 L 28.730469 27.707031 Z M 28.730469 20.339844 " clip-rule="nonzero"/></clipPath><clipPath id="ae8d0fdd05"><path d="M 32.410156 20.339844 L 60.613281 20.339844 C 62.648438 20.339844 64.296875 21.992188 64.296875 24.023438 C 64.296875 26.058594 62.648438 27.707031 60.613281 27.707031 L 32.410156 27.707031 C 30.378906 27.707031 28.730469 26.058594 28.730469 24.023438 C 28.730469 21.992188 30.378906 20.339844 32.410156 20.339844 Z M 32.410156 20.339844 " clip-rule="nonzero"/></clipPath><clipPath id="bd5369d549"><path d="M 18.367188 20.339844 L 26.539062 20.339844 L 26.539062 27.707031 L 18.367188 27.707031 Z M 18.367188 20.339844 " clip-rule="nonzero"/></clipPath><clipPath id="826290a927"><path d="M 22.050781 20.339844 L 22.828125 20.339844 C 24.863281 20.339844 26.511719 21.992188 26.511719 24.023438 C 26.511719 26.058594 24.863281 27.707031 22.828125 27.707031 L 22.050781 27.707031 C 20.015625 27.707031 18.367188 26.058594 18.367188 24.023438 C 18.367188 21.992188 20.015625 20.339844 22.050781 20.339844 Z M 22.050781 20.339844 " clip-rule="nonzero"/></clipPath></defs><g clip-path="url(#6b097e6c4f)"><g clip-path="url(#a8ed3a4dcd)"><path fill="#f9d802" d="M 230.335938 0 L 279.886719 0 L 279.886719 48.050781 L 230.335938 48.050781 Z M 230.335938 0 " fill-opacity="1" fill-rule="nonzero"/></g></g><g clip-path="url(#b3f4927626)"><path fill="#f9d802" d="M 0.34375 0 L 256.730469 0 L 256.730469 48.050781 L 0.34375 48.050781 Z M 0.34375 0 " fill-opacity="1" fill-rule="nonzero"/></g><g clip-path="url(#f4558f9c55)"><path fill="#e7191f" d="M 68.179688 21.976562 L 79.015625 9.777344 L 83.972656 9.777344 L 74.144531 20.476562 L 80.816406 37.796875 L 71.246094 37.796875 L 67.394531 25.507812 L 64.804688 37.796875 L 55.324219 37.796875 L 61.25 9.816406 L 70.769531 9.816406 Z M 68.179688 21.976562 " fill-opacity="1" fill-rule="nonzero"/></g><g clip-path="url(#060bad4012)"><g clip-path="url(#608179bed7)"><path fill="#e7191f" d="M 45.183594 9.8125 L 67.453125 9.8125 L 67.453125 17.179688 L 45.183594 17.179688 Z M 45.183594 9.8125 " fill-opacity="1" fill-rule="nonzero"/></g></g><g clip-path="url(#411d478155)"><g clip-path="url(#2a22d36652)"><path fill="#cc222a" d="M 31.195312 9.8125 L 42.011719 9.8125 L 42.011719 17.179688 L 31.195312 17.179688 Z M 31.195312 9.8125 " fill-opacity="1" fill-rule="nonzero"/></g></g><g clip-path="url(#123fafb1cd)"><g clip-path="url(#b9b6a80570)"><path fill="#cc222a" d="M 22.027344 30.324219 L 37.25 30.324219 L 37.25 37.691406 L 22.027344 37.691406 Z M 22.027344 30.324219 " fill-opacity="1" fill-rule="nonzero"/></g></g><g clip-path="url(#be5ce6c2d0)"><g clip-path="url(#d469255ff7)"><path fill="#e7191f" d="M 40.167969 30.324219 L 62.4375 30.324219 L 62.4375 37.691406 L 40.167969 37.691406 Z M 40.167969 30.324219 " fill-opacity="1" fill-rule="nonzero"/></g></g><g clip-path="url(#adf847fbf8)"><g clip-path="url(#ae8d0fdd05)"><path fill="#e7191f" d="M 28.730469 20.339844 L 64.292969 20.339844 L 64.292969 27.707031 L 28.730469 27.707031 Z M 28.730469 20.339844 " fill-opacity="1" fill-rule="nonzero"/></g></g><g clip-path="url(#bd5369d549)"><g clip-path="url(#826290a927)"><path fill="#cc222a" d="M 18.367188 20.339844 L 26.511719 20.339844 L 26.511719 27.707031 L 18.367188 27.707031 Z M 18.367188 20.339844 " fill-opacity="1" fill-rule="nonzero"/></g></g><path fill="#e7191f" d="M 86.433594 21.214844 C 87.890625 20.507812 89.375 19.992188 90.898438 19.667969 C 92.421875 19.335938 94.125 19.171875 96.007812 19.171875 C 97.832031 19.171875 99.339844 19.316406 100.539062 19.597656 C 101.734375 19.882812 102.6875 20.296875 103.398438 20.839844 C 104.117188 21.375 104.617188 22.015625 104.902344 22.757812 C 105.1875 23.5 105.328125 24.34375 105.328125 25.277344 C 105.328125 25.820312 105.292969 26.40625 105.222656 27.03125 C 105.148438 27.660156 105.070312 28.183594 104.980469 28.609375 L 102.972656 38 L 96.09375 38 L 95.328125 35.269531 L 95.066406 35.269531 C 94.15625 36.261719 93.09375 37.027344 91.886719 37.554688 C 90.675781 38.078125 89.472656 38.339844 88.277344 38.339844 C 87.59375 38.339844 86.921875 38.238281 86.261719 38.039062 C 85.605469 37.84375 85.023438 37.542969 84.515625 37.128906 C 84.003906 36.714844 83.59375 36.1875 83.285156 35.550781 C 82.96875 34.910156 82.808594 34.132812 82.808594 33.222656 C 82.808594 31.738281 83.214844 30.5625 84.019531 29.695312 C 84.835938 28.832031 85.90625 28.179688 87.230469 27.738281 C 88.554688 27.292969 90.046875 27.015625 91.710938 26.90625 C 93.378906 26.789062 95.054688 26.730469 96.734375 26.730469 C 96.792969 26.445312 96.863281 26.042969 96.949219 25.519531 C 97.03125 24.992188 97.074219 24.527344 97.074219 24.125 C 97.074219 23.613281 96.9375 23.140625 96.667969 22.699219 C 96.402344 22.253906 95.839844 22.03125 94.980469 22.03125 C 93.984375 22.03125 93.25 22.328125 92.777344 22.914062 C 92.3125 23.492188 92.007812 24.199219 91.867188 25.023438 L 85.628906 25.023438 Z M 96.269531 28.738281 L 95.492188 28.738281 C 94.671875 28.738281 93.964844 28.84375 93.378906 29.054688 C 92.796875 29.269531 92.328125 29.546875 91.972656 29.890625 C 91.617188 30.234375 91.351562 30.617188 91.179688 31.042969 C 91.007812 31.46875 90.925781 31.894531 90.925781 32.320312 C 90.925781 33.007812 91.101562 33.519531 91.460938 33.863281 C 91.8125 34.199219 92.234375 34.367188 92.71875 34.367188 C 93.3125 34.367188 93.902344 34.152344 94.484375 33.726562 C 95.070312 33.300781 95.4375 32.734375 95.582031 32.023438 Z M 96.269531 28.738281 " fill-opacity="1" fill-rule="nonzero"/><path fill="#e7191f" d="M 124.515625 10.460938 C 126.964844 10.460938 128.953125 10.773438 130.472656 11.398438 C 131.996094 12.027344 133.203125 12.996094 134.089844 14.308594 C 134.65625 15.1875 135.097656 16.183594 135.410156 17.292969 C 135.722656 18.402344 135.882812 19.6875 135.882812 21.140625 C 135.882812 22.386719 135.765625 23.636719 135.535156 24.890625 C 135.304688 26.144531 134.988281 27.347656 134.574219 28.503906 C 134.167969 29.65625 133.667969 30.738281 133.082031 31.75 C 132.5 32.757812 131.851562 33.648438 131.140625 34.414062 C 129.800781 35.867188 128.253906 36.886719 126.503906 37.46875 C 124.75 38.050781 122.589844 38.339844 120.027344 38.339844 C 117.546875 38.339844 115.554688 38.082031 114.042969 37.574219 C 112.535156 37.066406 111.339844 36.238281 110.453125 35.09375 C 109.824219 34.296875 109.332031 33.289062 108.980469 32.070312 C 108.621094 30.84375 108.445312 29.304688 108.445312 27.457031 C 108.445312 24.296875 109.007812 21.476562 110.132812 18.988281 C 111.257812 16.496094 112.859375 14.519531 114.945312 13.066406 C 116.199219 12.183594 117.59375 11.527344 119.132812 11.101562 C 120.671875 10.671875 122.464844 10.460938 124.515625 10.460938 Z M 119.6875 35.355469 C 120.339844 35.355469 120.957031 35.0625 121.539062 34.484375 C 122.125 33.898438 122.667969 33.113281 123.167969 32.128906 C 123.664062 31.148438 124.121094 30.03125 124.535156 28.773438 C 124.949219 27.523438 125.296875 26.226562 125.582031 24.890625 C 125.867188 23.550781 126.085938 22.222656 126.242188 20.90625 C 126.402344 19.582031 126.484375 18.378906 126.484375 17.292969 C 126.484375 15.8125 126.332031 14.796875 126.03125 14.238281 C 125.730469 13.683594 125.296875 13.40625 124.730469 13.40625 C 124.074219 13.40625 123.449219 13.691406 122.847656 14.257812 C 122.253906 14.828125 121.6875 15.589844 121.160156 16.546875 C 120.628906 17.503906 120.15625 18.601562 119.746094 19.839844 C 119.335938 21.078125 118.980469 22.347656 118.679688 23.660156 C 118.378906 24.964844 118.152344 26.261719 118 27.542969 C 117.84375 28.824219 117.765625 30.003906 117.765625 31.082031 C 117.765625 32.703125 117.941406 33.820312 118.300781 34.433594 C 118.652344 35.050781 119.117188 35.355469 119.6875 35.355469 Z M 119.6875 35.355469 " fill-opacity="1" fill-rule="nonzero"/><path fill="#e7191f" d="M 147.679688 22.371094 C 148.273438 21.804688 148.945312 21.273438 149.6875 20.789062 C 150.339844 20.398438 151.105469 20.03125 151.988281 19.6875 C 152.871094 19.34375 153.859375 19.171875 154.945312 19.171875 C 156.425781 19.171875 157.652344 19.550781 158.621094 20.304688 C 159.589844 21.058594 160.074219 22.085938 160.074219 23.398438 C 160.074219 23.765625 160.03125 24.214844 159.941406 24.742188 C 159.855469 25.265625 159.757812 25.816406 159.640625 26.390625 C 159.527344 26.960938 159.410156 27.535156 159.28125 28.117188 C 159.148438 28.699219 159.042969 29.21875 158.960938 29.675781 L 157.167969 38 L 148.496094 38 L 150.84375 26.855469 C 150.902344 26.488281 150.972656 26.117188 151.054688 25.734375 C 151.136719 25.34375 151.183594 24.992188 151.183594 24.675781 C 151.183594 24.25 151.074219 23.90625 150.863281 23.640625 C 150.648438 23.367188 150.328125 23.230469 149.902344 23.230469 C 149.390625 23.230469 148.898438 23.417969 148.429688 23.785156 C 147.953125 24.152344 147.59375 24.46875 147.339844 24.726562 L 144.519531 38 L 135.800781 38 L 139.6875 19.636719 L 146.652344 19.636719 L 147.417969 22.371094 Z M 147.679688 22.371094 " fill-opacity="1" fill-rule="nonzero"/><path fill="#e7191f" d="M 187.292969 14.132812 L 180.414062 14.132812 L 175.332031 38 L 166.101562 38 L 171.183594 14.132812 L 164.394531 14.132812 L 165.160156 10.886719 L 188.019531 10.886719 Z M 187.292969 14.132812 " fill-opacity="1" fill-rule="nonzero"/><path fill="#e7191f" d="M 193.234375 38 L 184.5625 38 L 188.453125 19.636719 L 197.210938 19.636719 Z M 198.324219 14.046875 C 198.324219 14.703125 198.191406 15.277344 197.917969 15.761719 C 197.644531 16.242188 197.289062 16.648438 196.839844 16.992188 C 196.398438 17.335938 195.894531 17.59375 195.328125 17.765625 C 194.757812 17.9375 194.175781 18.019531 193.582031 18.019531 C 192.4375 18.019531 191.480469 17.753906 190.710938 17.214844 C 189.941406 16.671875 189.558594 15.816406 189.558594 14.648438 C 189.558594 14.023438 189.6875 13.460938 189.945312 12.960938 C 190.203125 12.464844 190.550781 12.050781 190.992188 11.71875 C 191.433594 11.390625 191.945312 11.144531 192.527344 10.972656 C 193.113281 10.808594 193.722656 10.722656 194.347656 10.722656 C 195.460938 10.722656 196.398438 10.992188 197.171875 11.535156 C 197.941406 12.074219 198.324219 12.910156 198.324219 14.046875 Z M 198.324219 14.046875 " fill-opacity="1" fill-rule="nonzero"/><path fill="#e7191f" d="M 208.964844 22.371094 C 209.558594 21.804688 210.230469 21.273438 210.972656 20.789062 C 211.625 20.398438 212.410156 20.03125 213.320312 19.6875 C 214.230469 19.34375 215.253906 19.171875 216.394531 19.171875 C 217.765625 19.171875 218.785156 19.488281 219.449219 20.113281 C 220.121094 20.738281 220.5 21.507812 220.585938 22.417969 L 220.847656 22.417969 C 221.5 21.816406 222.210938 21.273438 222.980469 20.789062 C 223.632812 20.398438 224.398438 20.03125 225.277344 19.6875 C 226.164062 19.34375 227.105469 19.171875 228.109375 19.171875 C 229.589844 19.171875 230.792969 19.578125 231.71875 20.394531 C 232.644531 21.203125 233.105469 22.242188 233.105469 23.523438 C 233.105469 24.183594 232.992188 25.054688 232.765625 26.140625 C 232.539062 27.21875 232.285156 28.398438 232 29.675781 L 230.207031 38 L 221.789062 38 L 224.097656 26.855469 C 224.179688 26.429688 224.261719 26.019531 224.347656 25.625 C 224.429688 25.226562 224.472656 24.898438 224.472656 24.636719 C 224.472656 24.238281 224.359375 23.90625 224.132812 23.640625 C 223.90625 23.367188 223.582031 23.230469 223.15625 23.230469 C 222.613281 23.230469 222.101562 23.421875 221.632812 23.804688 C 221.160156 24.1875 220.796875 24.507812 220.546875 24.761719 L 217.761719 38 L 209.78125 38 L 212.128906 26.855469 C 212.1875 26.488281 212.257812 26.117188 212.339844 25.734375 C 212.421875 25.34375 212.46875 24.992188 212.46875 24.675781 C 212.46875 24.25 212.359375 23.90625 212.148438 23.640625 C 211.933594 23.367188 211.613281 23.230469 211.1875 23.230469 C 210.675781 23.230469 210.183594 23.417969 209.710938 23.785156 C 209.238281 24.152344 208.878906 24.46875 208.625 24.726562 L 205.804688 38 L 197.085938 38 L 200.972656 19.636719 L 207.9375 19.636719 L 208.703125 22.371094 Z M 208.964844 22.371094 " fill-opacity="1" fill-rule="nonzero"/><path fill="#e7191f" d="M 243.628906 29.414062 C 243.511719 30.042969 243.429688 30.644531 243.386719 31.21875 C 243.347656 31.785156 243.328125 32.296875 243.328125 32.75 C 243.328125 33.007812 243.339844 33.296875 243.367188 33.609375 C 243.390625 33.921875 243.453125 34.210938 243.550781 34.484375 C 243.652344 34.75 243.796875 34.976562 243.988281 35.160156 C 244.175781 35.351562 244.4375 35.441406 244.773438 35.441406 C 245.03125 35.441406 245.320312 35.359375 245.644531 35.191406 C 245.976562 35.015625 246.304688 34.773438 246.636719 34.464844 C 246.964844 34.148438 247.277344 33.761719 247.574219 33.308594 C 247.871094 32.851562 248.109375 32.339844 248.285156 31.769531 L 255.285156 31.769531 L 254.179688 36.332031 C 253.609375 36.703125 252.953125 37.015625 252.210938 37.273438 C 251.476562 37.53125 250.691406 37.738281 249.863281 37.894531 C 249.035156 38.050781 248.195312 38.160156 247.34375 38.234375 C 246.488281 38.304688 245.675781 38.339844 244.910156 38.339844 C 243.476562 38.339844 242.148438 38.214844 240.921875 37.960938 C 239.699219 37.703125 238.632812 37.261719 237.722656 36.632812 C 236.808594 36.007812 236.085938 35.175781 235.558594 34.132812 C 235.035156 33.09375 234.773438 31.808594 234.773438 30.277344 C 234.773438 28.882812 234.992188 27.515625 235.433594 26.179688 C 235.878906 24.835938 236.621094 23.648438 237.664062 22.613281 C 238.703125 21.574219 240.101562 20.738281 241.855469 20.113281 C 243.605469 19.488281 245.792969 19.171875 248.410156 19.171875 C 251.261719 19.171875 253.40625 19.617188 254.839844 20.5 C 256.28125 21.378906 257.003906 22.757812 257.003906 24.636719 C 257.003906 25.40625 256.886719 26.242188 256.652344 27.136719 C 256.425781 28.027344 256.085938 28.789062 255.636719 29.414062 Z M 249.3125 24.335938 C 249.3125 23.453125 249.167969 22.855469 248.875 22.542969 C 248.589844 22.234375 248.25 22.078125 247.855469 22.078125 C 247.394531 22.078125 246.972656 22.230469 246.585938 22.523438 C 246.203125 22.824219 245.855469 23.21875 245.539062 23.71875 C 245.230469 24.214844 244.941406 24.789062 244.6875 25.433594 C 244.433594 26.070312 244.222656 26.746094 244.054688 27.457031 L 248.925781 27.457031 C 248.980469 27.117188 249.035156 26.757812 249.089844 26.390625 C 249.148438 26.078125 249.199219 25.734375 249.242188 25.363281 C 249.289062 24.996094 249.3125 24.65625 249.3125 24.335938 Z M 249.3125 24.335938 " fill-opacity="1" fill-rule="nonzero"/></svg>