<svg xmlns="http://www.w3.org/2000/svg" xmlns:xlink="http://www.w3.org/1999/xlink" width="586" zoomAndPan="magnify" viewBox="0 0 439.5 75.749997" height="101" preserveAspectRatio="xMidYMid meet" version="1.0"><defs><clipPath id="541251e7aa"><path d="M 360.1875 0 L 437.976562 0 L 437.976562 75.148438 L 360.1875 75.148438 Z M 360.1875 0 " clip-rule="nonzero"/></clipPath><clipPath id="923818373c"><path d="M 399.003906 0 C 377.566406 0 360.1875 16.824219 360.1875 37.574219 C 360.1875 58.328125 377.566406 75.148438 399.003906 75.148438 C 420.441406 75.148438 437.816406 58.328125 437.816406 37.574219 C 437.816406 16.824219 420.441406 0 399.003906 0 Z M 399.003906 0 " clip-rule="nonzero"/></clipPath><clipPath id="fc198c5dc5"><path d="M 0.472656 0 L 401.34375 0 L 401.34375 75.148438 L 0.472656 75.148438 Z M 0.472656 0 " clip-rule="nonzero"/></clipPath><clipPath id="375feb4e48"><path d="M 86 15.347656 L 132 15.347656 L 132 58.707031 L 86 58.707031 Z M 86 15.347656 " clip-rule="nonzero"/></clipPath><clipPath id="8cc3bed6c3"><path d="M 70.601562 15.347656 L 105.480469 15.347656 L 105.480469 26.871094 L 70.601562 26.871094 Z M 70.601562 15.347656 " clip-rule="nonzero"/></clipPath><clipPath id="f11710d08e"><path d="M 76.363281 15.347656 L 99.691406 15.347656 C 102.871094 15.347656 105.453125 17.929688 105.453125 21.109375 C 105.453125 24.289062 102.871094 26.871094 99.691406 26.871094 L 76.363281 26.871094 C 73.183594 26.871094 70.601562 24.289062 70.601562 21.109375 C 70.601562 17.929688 73.183594 15.347656 76.363281 15.347656 Z M 76.363281 15.347656 " clip-rule="nonzero"/></clipPath><clipPath id="7c6acd3bbc"><path d="M 48.722656 15.347656 L 65.691406 15.347656 L 65.691406 26.871094 L 48.722656 26.871094 Z M 48.722656 15.347656 " clip-rule="nonzero"/></clipPath><clipPath id="dc19730283"><path d="M 54.484375 15.347656 L 59.886719 15.347656 C 63.070312 15.347656 65.648438 17.929688 65.648438 21.109375 C 65.648438 24.289062 63.070312 26.871094 59.886719 26.871094 L 54.484375 26.871094 C 51.304688 26.871094 48.722656 24.289062 48.722656 21.109375 C 48.722656 17.929688 51.304688 15.347656 54.484375 15.347656 Z M 54.484375 15.347656 " clip-rule="nonzero"/></clipPath><clipPath id="42bb49e7db"><path d="M 34.386719 47.425781 L 58.238281 47.425781 L 58.238281 58.949219 L 34.386719 58.949219 Z M 34.386719 47.425781 " clip-rule="nonzero"/></clipPath><clipPath id="4af4af1062"><path d="M 40.148438 47.425781 L 52.445312 47.425781 C 55.625 47.425781 58.207031 50.003906 58.207031 53.1875 C 58.207031 56.367188 55.625 58.949219 52.445312 58.949219 L 40.148438 58.949219 C 36.964844 58.949219 34.386719 56.367188 34.386719 53.1875 C 34.386719 50.003906 36.964844 47.425781 40.148438 47.425781 Z M 40.148438 47.425781 " clip-rule="nonzero"/></clipPath><clipPath id="87be186566"><path d="M 62.757812 47.425781 L 97.632812 47.425781 L 97.632812 58.949219 L 62.757812 58.949219 Z M 62.757812 47.425781 " clip-rule="nonzero"/></clipPath><clipPath id="198bd1a3c1"><path d="M 68.519531 47.425781 L 91.847656 47.425781 C 95.027344 47.425781 97.605469 50.003906 97.605469 53.1875 C 97.605469 56.367188 95.027344 58.949219 91.847656 58.949219 L 68.519531 58.949219 C 65.335938 58.949219 62.757812 56.367188 62.757812 53.1875 C 62.757812 50.003906 65.335938 47.425781 68.519531 47.425781 Z M 68.519531 47.425781 " clip-rule="nonzero"/></clipPath><clipPath id="e13067e57f"><path d="M 44.867188 31.816406 L 100.535156 31.816406 L 100.535156 43.335938 L 44.867188 43.335938 Z M 44.867188 31.816406 " clip-rule="nonzero"/></clipPath><clipPath id="25eb7d7eff"><path d="M 50.628906 31.816406 L 94.738281 31.816406 C 97.917969 31.816406 100.496094 34.394531 100.496094 37.574219 C 100.496094 40.757812 97.917969 43.335938 94.738281 43.335938 L 50.628906 43.335938 C 47.445312 43.335938 44.867188 40.757812 44.867188 37.574219 C 44.867188 34.394531 47.445312 31.816406 50.628906 31.816406 Z M 50.628906 31.816406 " clip-rule="nonzero"/></clipPath><clipPath id="fedd879912"><path d="M 28.660156 31.816406 L 41.441406 31.816406 L 41.441406 43.335938 L 28.660156 43.335938 Z M 28.660156 31.816406 " clip-rule="nonzero"/></clipPath><clipPath id="295ab28dcd"><path d="M 34.421875 31.816406 L 35.640625 31.816406 C 38.820312 31.816406 41.398438 34.394531 41.398438 37.574219 C 41.398438 40.757812 38.820312 43.335938 35.640625 43.335938 L 34.421875 43.335938 C 31.242188 43.335938 28.660156 40.757812 28.660156 37.574219 C 28.660156 34.394531 31.242188 31.816406 34.421875 31.816406 Z M 34.421875 31.816406 " clip-rule="nonzero"/></clipPath></defs><g clip-path="url(#541251e7aa)"><g clip-path="url(#923818373c)"><path fill="#f9d802" d="M 360.1875 0 L 437.683594 0 L 437.683594 75.148438 L 360.1875 75.148438 Z M 360.1875 0 " fill-opacity="1" fill-rule="nonzero"/></g></g><g clip-path="url(#fc198c5dc5)"><path fill="#f9d802" d="M 0.472656 0 L 401.46875 0 L 401.46875 75.148438 L 0.472656 75.148438 Z M 0.472656 0 " fill-opacity="1" fill-rule="nonzero"/></g><g clip-path="url(#375feb4e48)"><path fill="#e7191f" d="M 106.570312 34.371094 L 123.515625 15.289062 L 131.269531 15.289062 L 115.898438 32.027344 L 126.332031 59.113281 L 111.367188 59.113281 L 105.339844 39.894531 L 101.292969 59.113281 L 86.464844 59.113281 L 95.730469 15.351562 L 110.621094 15.351562 Z M 106.570312 34.371094 " fill-opacity="1" fill-rule="nonzero"/></g><g clip-path="url(#8cc3bed6c3)"><g clip-path="url(#f11710d08e)"><path fill="#e7191f" d="M 70.601562 15.347656 L 105.433594 15.347656 L 105.433594 26.871094 L 70.601562 26.871094 Z M 70.601562 15.347656 " fill-opacity="1" fill-rule="nonzero"/></g></g><g clip-path="url(#7c6acd3bbc)"><g clip-path="url(#dc19730283)"><path fill="#cc222a" d="M 48.722656 15.347656 L 65.644531 15.347656 L 65.644531 26.871094 L 48.722656 26.871094 Z M 48.722656 15.347656 " fill-opacity="1" fill-rule="nonzero"/></g></g><g clip-path="url(#42bb49e7db)"><g clip-path="url(#4af4af1062)"><path fill="#cc222a" d="M 34.386719 47.425781 L 58.195312 47.425781 L 58.195312 58.949219 L 34.386719 58.949219 Z M 34.386719 47.425781 " fill-opacity="1" fill-rule="nonzero"/></g></g><g clip-path="url(#87be186566)"><g clip-path="url(#198bd1a3c1)"><path fill="#e7191f" d="M 62.757812 47.425781 L 97.589844 47.425781 L 97.589844 58.949219 L 62.757812 58.949219 Z M 62.757812 47.425781 " fill-opacity="1" fill-rule="nonzero"/></g></g><g clip-path="url(#e13067e57f)"><g clip-path="url(#25eb7d7eff)"><path fill="#e7191f" d="M 44.867188 31.816406 L 100.492188 31.816406 L 100.492188 43.335938 L 44.867188 43.335938 Z M 44.867188 31.816406 " fill-opacity="1" fill-rule="nonzero"/></g></g><g clip-path="url(#fedd879912)"><g clip-path="url(#295ab28dcd)"><path fill="#cc222a" d="M 28.660156 31.816406 L 41.398438 31.816406 L 41.398438 43.335938 L 28.660156 43.335938 Z M 28.660156 31.816406 " fill-opacity="1" fill-rule="nonzero"/></g></g><path fill="#e7191f" d="M 135.121094 33.183594 C 137.398438 32.074219 139.722656 31.265625 142.097656 30.757812 C 144.484375 30.242188 147.152344 29.984375 150.09375 29.984375 C 152.945312 29.984375 155.304688 30.207031 157.175781 30.652344 C 159.046875 31.097656 160.539062 31.742188 161.652344 32.59375 C 162.773438 33.433594 163.554688 34.433594 164.003906 35.59375 C 164.445312 36.757812 164.671875 38.070312 164.671875 39.535156 C 164.671875 40.382812 164.613281 41.300781 164.503906 42.277344 C 164.390625 43.257812 164.265625 44.082031 164.125 44.746094 L 160.984375 59.433594 L 150.230469 59.433594 L 149.03125 55.160156 L 148.621094 55.160156 C 147.195312 56.714844 145.535156 57.910156 143.644531 58.734375 C 141.753906 59.554688 139.871094 59.964844 138.003906 59.964844 C 136.929688 59.964844 135.878906 59.804688 134.847656 59.492188 C 133.824219 59.191406 132.914062 58.71875 132.117188 58.070312 C 131.316406 57.425781 130.675781 56.597656 130.191406 55.597656 C 129.699219 54.597656 129.449219 53.386719 129.449219 51.960938 C 129.449219 49.640625 130.082031 47.800781 131.34375 46.445312 C 132.617188 45.09375 134.289062 44.074219 136.363281 43.382812 C 138.4375 42.6875 140.773438 42.253906 143.375 42.078125 C 145.980469 41.898438 148.597656 41.808594 151.230469 41.808594 C 151.320312 41.363281 151.433594 40.730469 151.566406 39.914062 C 151.695312 39.085938 151.761719 38.359375 151.761719 37.730469 C 151.761719 36.933594 151.550781 36.191406 151.125 35.503906 C 150.707031 34.804688 149.828125 34.457031 148.484375 34.457031 C 146.925781 34.457031 145.777344 34.917969 145.042969 35.835938 C 144.3125 36.746094 143.835938 37.847656 143.617188 39.140625 L 133.863281 39.140625 Z M 150.503906 44.945312 L 149.289062 44.945312 C 148.003906 44.945312 146.898438 45.109375 145.980469 45.445312 C 145.070312 45.777344 144.335938 46.214844 143.78125 46.746094 C 143.226562 47.285156 142.8125 47.882812 142.539062 48.550781 C 142.273438 49.21875 142.144531 49.886719 142.144531 50.550781 C 142.144531 51.625 142.421875 52.425781 142.980469 52.960938 C 143.53125 53.488281 144.191406 53.75 144.949219 53.75 C 145.878906 53.75 146.800781 53.417969 147.710938 52.75 C 148.628906 52.082031 149.203125 51.195312 149.425781 50.082031 Z M 150.503906 44.945312 " fill-opacity="1" fill-rule="nonzero"/><path fill="#e7191f" d="M 194.679688 16.359375 C 198.511719 16.359375 201.617188 16.851562 203.996094 17.832031 C 206.378906 18.8125 208.265625 20.328125 209.652344 22.378906 C 210.539062 23.753906 211.230469 25.308594 211.714844 27.046875 C 212.207031 28.785156 212.460938 30.789062 212.460938 33.0625 C 212.460938 35.011719 212.277344 36.96875 211.914062 38.925781 C 211.554688 40.890625 211.054688 42.773438 210.410156 44.582031 C 209.773438 46.378906 208.992188 48.074219 208.074219 49.65625 C 207.164062 51.234375 206.152344 52.625 205.042969 53.824219 C 202.949219 56.097656 200.527344 57.691406 197.789062 58.601562 C 195.050781 59.507812 191.671875 59.964844 187.65625 59.964844 C 183.78125 59.964844 180.664062 59.5625 178.296875 58.765625 C 175.941406 57.972656 174.070312 56.675781 172.6875 54.886719 C 171.703125 53.644531 170.933594 52.066406 170.378906 50.15625 C 169.824219 48.242188 169.546875 45.835938 169.546875 42.945312 C 169.546875 38.003906 170.425781 33.589844 172.183594 29.699219 C 173.945312 25.796875 176.453125 22.710938 179.710938 20.4375 C 181.667969 19.054688 183.855469 18.027344 186.261719 17.359375 C 188.667969 16.695312 191.472656 16.359375 194.679688 16.359375 Z M 187.125 55.296875 C 188.148438 55.296875 189.113281 54.839844 190.023438 53.933594 C 190.941406 53.015625 191.792969 51.789062 192.574219 50.25 C 193.351562 48.714844 194.0625 46.96875 194.710938 45.003906 C 195.355469 43.046875 195.902344 41.019531 196.351562 38.925781 C 196.792969 36.835938 197.136719 34.757812 197.382812 32.699219 C 197.632812 30.628906 197.761719 28.742188 197.761719 27.046875 C 197.761719 24.734375 197.519531 23.140625 197.046875 22.269531 C 196.582031 21.402344 195.902344 20.96875 195.015625 20.96875 C 193.992188 20.96875 193.011719 21.414062 192.070312 22.300781 C 191.140625 23.191406 190.257812 24.386719 189.433594 25.878906 C 188.601562 27.375 187.863281 29.089844 187.21875 31.03125 C 186.582031 32.964844 186.023438 34.953125 185.550781 37.003906 C 185.082031 39.042969 184.730469 41.070312 184.488281 43.082031 C 184.246094 45.082031 184.125 46.925781 184.125 48.613281 C 184.125 51.152344 184.398438 52.898438 184.957031 53.855469 C 185.511719 54.820312 186.234375 55.296875 187.125 55.296875 Z M 187.125 55.296875 " fill-opacity="1" fill-rule="nonzero"/><path fill="#e7191f" d="M 230.910156 34.988281 C 231.839844 34.101562 232.886719 33.273438 234.050781 32.515625 C 235.070312 31.902344 236.269531 31.328125 237.644531 30.789062 C 239.03125 30.253906 240.574219 29.984375 242.273438 29.984375 C 244.585938 29.984375 246.503906 30.578125 248.019531 31.757812 C 249.539062 32.933594 250.296875 34.542969 250.296875 36.59375 C 250.296875 37.167969 250.222656 37.875 250.085938 38.699219 C 249.953125 39.519531 249.796875 40.378906 249.613281 41.277344 C 249.4375 42.167969 249.253906 43.066406 249.050781 43.972656 C 248.847656 44.882812 248.679688 45.699219 248.550781 46.414062 L 245.746094 59.433594 L 232.183594 59.433594 L 235.855469 42.003906 C 235.945312 41.429688 236.054688 40.84375 236.1875 40.246094 C 236.316406 39.640625 236.386719 39.089844 236.386719 38.59375 C 236.386719 37.925781 236.21875 37.390625 235.886719 36.972656 C 235.550781 36.546875 235.050781 36.335938 234.382812 36.335938 C 233.582031 36.335938 232.8125 36.625 232.078125 37.199219 C 231.339844 37.777344 230.773438 38.269531 230.378906 38.667969 L 225.964844 59.433594 L 212.328125 59.433594 L 218.410156 30.714844 L 229.300781 30.714844 L 230.5 34.988281 Z M 230.910156 34.988281 " fill-opacity="1" fill-rule="nonzero"/><path fill="#e7191f" d="M 292.863281 22.105469 L 282.109375 22.105469 L 274.160156 59.433594 L 259.71875 59.433594 L 267.667969 22.105469 L 257.050781 22.105469 L 258.246094 17.027344 L 294 17.027344 Z M 292.863281 22.105469 " fill-opacity="1" fill-rule="nonzero"/><path fill="#e7191f" d="M 302.15625 59.433594 L 288.59375 59.433594 L 294.675781 30.714844 L 308.375 30.714844 Z M 310.117188 21.96875 C 310.117188 23 309.90625 23.894531 309.480469 24.652344 C 309.058594 25.402344 308.496094 26.042969 307.796875 26.574219 C 307.109375 27.113281 306.320312 27.515625 305.433594 27.789062 C 304.539062 28.054688 303.628906 28.183594 302.703125 28.183594 C 300.910156 28.183594 299.414062 27.765625 298.210938 26.925781 C 297.003906 26.074219 296.40625 24.738281 296.40625 22.90625 C 296.40625 21.929688 296.605469 21.050781 297.011719 20.269531 C 297.414062 19.492188 297.960938 18.847656 298.652344 18.332031 C 299.335938 17.816406 300.136719 17.429688 301.046875 17.164062 C 301.964844 16.902344 302.917969 16.769531 303.898438 16.769531 C 305.636719 16.769531 307.109375 17.195312 308.3125 18.042969 C 309.515625 18.882812 310.117188 20.191406 310.117188 21.96875 Z M 310.117188 21.96875 " fill-opacity="1" fill-rule="nonzero"/><path fill="#e7191f" d="M 326.761719 34.988281 C 327.691406 34.101562 328.738281 33.273438 329.902344 32.515625 C 330.921875 31.902344 332.144531 31.328125 333.570312 30.789062 C 334.996094 30.253906 336.597656 29.984375 338.378906 29.984375 C 340.523438 29.984375 342.117188 30.476562 343.160156 31.457031 C 344.207031 32.4375 344.800781 33.636719 344.933594 35.0625 L 345.34375 35.0625 C 346.363281 34.121094 347.472656 33.273438 348.679688 32.515625 C 349.699219 31.902344 350.898438 31.328125 352.273438 30.789062 C 353.660156 30.253906 355.132812 29.984375 356.703125 29.984375 C 359.019531 29.984375 360.898438 30.621094 362.347656 31.894531 C 363.792969 33.160156 364.515625 34.789062 364.515625 36.789062 C 364.515625 37.820312 364.339844 39.183594 363.984375 40.882812 C 363.628906 42.574219 363.230469 44.414062 362.789062 46.414062 L 359.980469 59.433594 L 346.8125 59.433594 L 350.425781 42.003906 C 350.554688 41.335938 350.6875 40.695312 350.820312 40.078125 C 350.949219 39.453125 351.015625 38.9375 351.015625 38.535156 C 351.015625 37.90625 350.835938 37.390625 350.484375 36.972656 C 350.128906 36.546875 349.621094 36.335938 348.953125 36.335938 C 348.101562 36.335938 347.308594 36.636719 346.570312 37.230469 C 345.832031 37.828125 345.265625 38.328125 344.871094 38.730469 L 340.519531 59.433594 L 328.035156 59.433594 L 331.707031 42.003906 C 331.796875 41.429688 331.90625 40.84375 332.039062 40.246094 C 332.167969 39.640625 332.238281 39.089844 332.238281 38.59375 C 332.238281 37.925781 332.070312 37.390625 331.734375 36.972656 C 331.402344 36.546875 330.902344 36.335938 330.234375 36.335938 C 329.433594 36.335938 328.664062 36.625 327.929688 37.199219 C 327.1875 37.777344 326.625 38.269531 326.230469 38.667969 L 321.816406 59.433594 L 308.179688 59.433594 L 314.261719 30.714844 L 325.152344 30.714844 L 326.351562 34.988281 Z M 326.761719 34.988281 " fill-opacity="1" fill-rule="nonzero"/><path fill="#e7191f" d="M 380.972656 46.003906 C 380.792969 46.988281 380.664062 47.925781 380.59375 48.824219 C 380.535156 49.714844 380.503906 50.515625 380.503906 51.21875 C 380.503906 51.625 380.523438 52.074219 380.5625 52.566406 C 380.601562 53.054688 380.699219 53.507812 380.851562 53.933594 C 381.011719 54.347656 381.238281 54.699219 381.535156 54.992188 C 381.828125 55.289062 382.238281 55.433594 382.761719 55.433594 C 383.164062 55.433594 383.621094 55.304688 384.128906 55.039062 C 384.644531 54.765625 385.160156 54.386719 385.675781 53.902344 C 386.191406 53.410156 386.679688 52.804688 387.148438 52.097656 C 387.609375 51.382812 387.980469 50.578125 388.253906 49.6875 L 399.207031 49.6875 L 397.476562 56.828125 C 396.585938 57.402344 395.558594 57.894531 394.398438 58.296875 C 393.246094 58.703125 392.019531 59.023438 390.726562 59.265625 C 389.429688 59.507812 388.117188 59.683594 386.785156 59.796875 C 385.449219 59.90625 384.179688 59.964844 382.976562 59.964844 C 380.738281 59.964844 378.660156 59.765625 376.742188 59.371094 C 374.832031 58.972656 373.160156 58.277344 371.734375 57.296875 C 370.308594 56.320312 369.179688 55.015625 368.351562 53.386719 C 367.535156 51.761719 367.125 49.75 367.125 47.355469 C 367.125 45.171875 367.464844 43.035156 368.15625 40.941406 C 368.855469 38.84375 370.015625 36.984375 371.644531 35.367188 C 373.273438 33.742188 375.457031 32.4375 378.199219 31.457031 C 380.9375 30.476562 384.355469 29.984375 388.453125 29.984375 C 392.910156 29.984375 396.265625 30.679688 398.507812 32.0625 C 400.761719 33.4375 401.890625 35.59375 401.890625 38.535156 C 401.890625 39.738281 401.710938 41.042969 401.347656 42.445312 C 400.988281 43.839844 400.457031 45.027344 399.753906 46.003906 Z M 389.863281 38.0625 C 389.863281 36.679688 389.636719 35.746094 389.179688 35.257812 C 388.734375 34.773438 388.203125 34.53125 387.585938 34.53125 C 386.867188 34.53125 386.207031 34.765625 385.601562 35.230469 C 385 35.695312 384.453125 36.316406 383.960938 37.09375 C 383.476562 37.875 383.027344 38.769531 382.628906 39.777344 C 382.234375 40.777344 381.902344 41.832031 381.640625 42.945312 L 389.257812 42.945312 C 389.347656 42.410156 389.429688 41.851562 389.515625 41.277344 C 389.605469 40.785156 389.683594 40.246094 389.757812 39.671875 C 389.824219 39.09375 389.863281 38.558594 389.863281 38.0625 Z M 389.863281 38.0625 " fill-opacity="1" fill-rule="nonzero"/></svg>